<svg width="166" height="25" viewBox="0 0 166 25" fill="none" xmlns="http://www.w3.org/2000/svg">
<g id="55DEBATE-logo">
<path fill-rule="evenodd" clip-rule="evenodd" d="M51.3791 24.3039H40.6691V0H51.0136C55.2295 0 58.2634 0.943137 60.1152 2.82941C61.9671 4.71569 62.8932 7.73858 62.8932 11.898C62.8932 16.0333 62.0036 19.1408 60.2249 21.2206C58.4461 23.2761 55.4972 24.3039 51.3791 24.3039ZM53.3727 5.25152L50.3581 5.31578C49.4255 5.33564 48.5387 5.7224 47.8932 6.39103C47.2478 7.05966 46.8965 7.9553 46.9165 8.88098L46.9593 10.8586C46.9641 10.9875 46.9196 11.1133 46.8346 11.2109C46.7496 11.3084 46.6305 11.3703 46.5013 11.3841C46.4326 11.39 46.3635 11.382 46.2982 11.3603C46.2328 11.3387 46.1726 11.304 46.1214 11.2583C46.0701 11.2125 46.0289 11.1569 46.0002 11.0948C45.9716 11.0325 45.9561 10.9652 45.9548 10.8969L45.9207 9.32C45.9197 9.27843 45.9084 9.23779 45.8876 9.20172C45.8668 9.16564 45.8372 9.13529 45.8016 9.11343C45.7659 9.09157 45.7254 9.07887 45.6836 9.07657C45.6418 9.07422 45.6 9.0823 45.5621 9.10005C45.2207 9.26853 44.9345 9.53 44.7371 9.85382C44.5397 10.1777 44.4393 10.5506 44.4475 10.929L44.4868 12.7483C44.4922 12.9747 44.5744 13.1926 44.7201 13.3669C44.733 13.3816 44.7465 13.3956 44.7606 13.409L47.0613 15.5711L47.1106 17.856C47.1164 18.1205 47.2278 18.3719 47.4203 18.5549C47.6128 18.7379 47.8706 18.8375 48.1371 18.8319L55.1712 18.682C55.4379 18.6763 55.6913 18.5658 55.8756 18.3748C56.0598 18.1837 56.1601 17.9278 56.1547 17.6634L56.1023 15.2401L56.9954 11.8638C57.0196 11.7741 57.0305 11.6816 57.0285 11.5888L56.9653 8.66691C56.9455 7.74123 56.5558 6.86132 55.882 6.22083C55.2083 5.58034 54.3053 5.23167 53.3727 5.25152Z" fill="url(#paint0_linear_80_121)"/>
<path d="M17.8744 0.399019V7.65393H7.52992L7.34716 9.25001C8.39499 8.88726 9.47943 8.70589 10.6004 8.70589C13.4272 8.70589 15.4985 9.27417 16.8144 10.4108C18.1303 11.5474 18.7883 13.5546 18.7883 16.4324C18.7883 21.9945 15.7422 24.7755 9.65 24.7755C8.50465 24.7755 7.12784 24.6546 5.51951 24.4128C3.91117 24.1951 2.59526 23.9654 1.57178 23.7235L0 23.3608L0.621401 17.4481C3.91117 17.9317 6.65265 18.1735 8.84583 18.1735C10.0886 18.1735 10.71 17.8471 10.71 17.1941C10.71 16.517 10.1252 16.1784 8.95549 16.1784C8.17568 16.1784 7.34716 16.2873 6.46989 16.5049L6.03125 16.6137L0.621401 15.9608L1.13314 0.399019H17.8744Z" fill="url(#paint1_linear_80_121)"/>
<path d="M37.9714 7.65393V0.399019H21.2301L20.7184 15.9608L26.1282 16.6137L26.5668 16.5049C27.4441 16.2873 28.2727 16.1784 29.0524 16.1784C30.2221 16.1784 30.807 16.517 30.807 17.1941C30.807 17.8471 30.1856 18.1735 28.9428 18.1735C26.7496 18.1735 24.0081 17.9317 20.7184 17.4481L20.097 23.3608L21.6687 23.7235C22.6922 23.9654 24.0081 24.1951 25.6165 24.4128C27.2248 24.6546 28.6017 24.7755 29.747 24.7755C35.8392 24.7755 38.8852 21.9945 38.8852 16.4324C38.8852 13.5546 38.2273 11.5474 36.9114 10.4108C35.5954 9.27417 33.5241 8.70589 30.6973 8.70589C29.5764 8.70589 28.492 8.88726 27.4441 9.25001L27.6269 7.65393H37.9714Z" fill="url(#paint2_linear_80_121)"/>
<path d="M64.5855 0V24.3039H82.9351V17.5931H73.0658V15.4167H80.7419V8.77843H73.0658V6.71078H82.9351V0H64.5855Z" fill="url(#paint3_linear_80_121)"/>
<path fill-rule="evenodd" clip-rule="evenodd" d="M84.6468 0H95.7223C101.693 0 104.678 2.00719 104.678 6.02157C104.678 7.5451 104.507 8.71799 104.166 9.5402C103.849 10.3624 103.179 11.1363 102.156 11.8618C103.35 12.3696 104.166 12.9984 104.605 13.748C105.068 14.4735 105.299 15.6948 105.299 17.4118C105.299 22.0065 102.156 24.3039 95.8685 24.3039H84.6468V0ZM95.1009 14.6912H93.1271V18.6814H95.1009C95.954 18.6814 96.5265 18.5484 96.8189 18.2824C97.1113 17.9922 97.2575 17.4722 97.2575 16.7225C97.2575 15.9487 97.0995 15.4167 96.7824 15.1265C96.4657 14.8363 95.9051 14.6912 95.1009 14.6912ZM94.9913 5.55H93.1271V9.43137H95.0278C95.7589 9.43137 96.2706 9.27417 96.563 8.9598C96.8555 8.64544 97.0017 8.14966 97.0017 7.47255C97.0017 6.77123 96.8436 6.27549 96.5265 5.98529C96.2099 5.6951 95.6981 5.55 94.9913 5.55Z" fill="url(#paint4_linear_80_121)"/>
<path fill-rule="evenodd" clip-rule="evenodd" d="M110.659 0L105.249 24.3039H113.583L114.168 21.5108H119.761L120.455 24.3039H129.009L123.489 0H110.659ZM115.265 15.0902L116.654 6.60196H117.568L118.883 15.0902H115.265Z" fill="url(#paint5_linear_80_121)"/>
<path d="M127.036 6.85588V0H145.312V6.85588H140.56V24.3039H132.08V6.85588H127.036Z" fill="url(#paint6_linear_80_121)"/>
<path d="M146.758 0V24.3039H165.108V17.5931H155.239V15.4167H162.915V8.77843H155.239V6.71078H165.108V0H146.758Z" fill="url(#paint7_linear_80_121)"/>
</g>
<defs>
<linearGradient id="paint0_linear_80_121" x1="82.554" y1="0" x2="82.554" y2="24.7755" gradientUnits="userSpaceOnUse">
<stop stop-color="#E4E5EA"/>
<stop offset="1" stop-color="#F0F1F6"/>
</linearGradient>
<linearGradient id="paint1_linear_80_121" x1="82.554" y1="0" x2="82.554" y2="24.7755" gradientUnits="userSpaceOnUse">
<stop stop-color="#E4E5EA"/>
<stop offset="1" stop-color="#F0F1F6"/>
</linearGradient>
<linearGradient id="paint2_linear_80_121" x1="82.554" y1="0" x2="82.554" y2="24.7755" gradientUnits="userSpaceOnUse">
<stop stop-color="#E4E5EA"/>
<stop offset="1" stop-color="#F0F1F6"/>
</linearGradient>
<linearGradient id="paint3_linear_80_121" x1="82.554" y1="0" x2="82.554" y2="24.7755" gradientUnits="userSpaceOnUse">
<stop stop-color="#E4E5EA"/>
<stop offset="1" stop-color="#F0F1F6"/>
</linearGradient>
<linearGradient id="paint4_linear_80_121" x1="82.554" y1="0" x2="82.554" y2="24.7755" gradientUnits="userSpaceOnUse">
<stop stop-color="#E4E5EA"/>
<stop offset="1" stop-color="#F0F1F6"/>
</linearGradient>
<linearGradient id="paint5_linear_80_121" x1="82.554" y1="0" x2="82.554" y2="24.7755" gradientUnits="userSpaceOnUse">
<stop stop-color="#E4E5EA"/>
<stop offset="1" stop-color="#F0F1F6"/>
</linearGradient>
<linearGradient id="paint6_linear_80_121" x1="82.554" y1="0" x2="82.554" y2="24.7755" gradientUnits="userSpaceOnUse">
<stop stop-color="#E4E5EA"/>
<stop offset="1" stop-color="#F0F1F6"/>
</linearGradient>
<linearGradient id="paint7_linear_80_121" x1="82.554" y1="0" x2="82.554" y2="24.7755" gradientUnits="userSpaceOnUse">
<stop stop-color="#E4E5EA"/>
<stop offset="1" stop-color="#F0F1F6"/>
</linearGradient>
</defs>
</svg>
