<svg width="50" height="50" viewBox="0 0 50 50" fill="none" xmlns="http://www.w3.org/2000/svg">
<path id="ButonNO_icon" fill-rule="evenodd" clip-rule="evenodd" d="M25 0C38.8058 0 50 11.1942 50 25C50 38.8058 38.8058 50 25 50C11.1942 50 0 38.8058 0 25C0 11.1942 11.1942 0 25 0ZM32.1397 15.3363C32.1397 15.3363 32.1374 15.3373 32.1351 15.3396L25 22.4746L17.865 15.3396C17.8626 15.3373 17.8603 15.3363 17.8603 15.3363H17.8564C17.8564 15.3363 17.8541 15.3373 17.8518 15.3396L15.3395 17.8518C15.3373 17.854 15.3363 17.8564 15.3363 17.8564V17.8603L15.3368 17.8616L15.3396 17.8649L22.4746 25L15.3396 32.1352C15.3373 32.1374 15.3363 32.1398 15.3363 32.1398V32.1437C15.3363 32.1437 15.3373 32.146 15.3396 32.1483L17.8518 34.6605C17.854 34.6628 17.8564 34.6638 17.8564 34.6638H17.8603C17.8603 34.6638 17.8626 34.6628 17.8649 34.6605L25 27.5253L32.1352 34.6604C32.1374 34.6627 32.1398 34.6637 32.1398 34.6637H32.1437C32.1437 34.6637 32.146 34.6627 32.1483 34.6604L34.6605 32.1482C34.6628 32.146 34.6638 32.1436 34.6638 32.1436V32.1397L34.6632 32.1385L34.6605 32.1351L27.5253 25L34.6604 17.865C34.6627 17.8626 34.6637 17.8603 34.6637 17.8603V17.8564C34.6637 17.8564 34.6627 17.8541 34.6604 17.8518L32.1482 15.3395C32.146 15.3373 32.1436 15.3363 32.1436 15.3363H32.1397Z" fill="#FFB662"/>
</svg>
