<svg width="50" height="50" viewBox="0 0 50 50" fill="none" xmlns="http://www.w3.org/2000/svg">
<path fill-rule="evenodd" clip-rule="evenodd" d="M25 50C38.8071 50 50 38.8071 50 25C50 11.1929 38.8071 0 25 0C11.1929 0 0 11.1929 0 25C0 38.8071 11.1929 50 25 50ZM13.0002 26.1973C13.0002 25.3388 13.2823 24.5136 13.7919 23.8402C13.6827 23.4761 13.6281 23.0969 13.6221 22.7147C13.6221 21.8562 13.9042 21.0311 14.4138 20.3576C14.3046 19.9936 14.25 19.6174 14.25 19.2352C14.25 18.3766 14.5321 17.5515 15.0418 16.878C14.9326 16.514 14.878 16.1378 14.878 15.7556C14.878 14.1903 15.8093 12.7796 17.2533 12.1638C17.5051 12.0546 17.7781 12 18.0572 12H32.3849V24.9838H32.3758L29.77 34.4184C29.3513 35.9382 27.9559 37 26.3784 37C25.9361 37.0016 25.4983 36.9126 25.0918 36.7383C24.6853 36.564 24.3189 36.3082 24.0152 35.9868C23.3964 35.3345 23.0778 34.479 23.1203 33.5781L23.3023 29.8498H16.0277C15.6619 29.8501 15.3027 29.7527 14.9872 29.5676C13.7616 28.8487 13.0002 27.5594 13.0002 26.1973ZM37.269 12.9708V24.0131C37.269 24.55 36.8352 24.9838 36.2983 24.9838H34.3264V12H36.2983C36.8352 12 37.269 12.4338 37.269 12.9708Z" fill="#FFB662"/>
</svg>
