<svg width="100" height="50" viewBox="0 0 100 50" fill="none" xmlns="http://www.w3.org/2000/svg">
<path fill-rule="evenodd" clip-rule="evenodd" d="M75 0C88.8071 0 100 11.1929 100 25C100 38.8071 88.8071 50 75 50H0V0H75ZM57.6667 21.3333C57.6667 20.4133 58.4133 19.6667 59.3333 19.6667C60.2533 19.6667 61 20.4133 61 21.3333V30C61 36.08 56.08 41 50 41C43.92 41 39 36.08 39 30V16.6667C39 16.2246 39.1756 15.8007 39.4882 15.4882C39.8007 15.1756 40.2246 15 40.6667 15C41.1087 15 41.5326 15.1756 41.8452 15.4882C42.1577 15.8007 42.3333 16.2246 42.3333 16.6667V25H43.6667V12.6667C43.6667 12.2246 43.8423 11.8007 44.1548 11.4882C44.4674 11.1756 44.8913 11 45.3333 11C45.7754 11 46.1993 11.1756 46.5118 11.4882C46.8244 11.8007 47 12.2246 47 12.6667V23.6667H48.3333V10.6667C48.3333 10.2246 48.5089 9.80072 48.8215 9.48816C49.134 9.17559 49.558 9 50 9C50.442 9 50.866 9.17559 51.1785 9.48816C51.4911 9.80072 51.6667 10.2246 51.6667 10.6667V23.6667H53V13.3333C53 12.8913 53.1756 12.4674 53.4882 12.1548C53.8007 11.8423 54.2246 11.6667 54.6667 11.6667C55.1087 11.6667 55.5326 11.8423 55.8452 12.1548C56.1577 12.4674 56.3333 12.8913 56.3333 13.3333V27.7067C53.7067 28.04 51.6667 30.28 51.6667 33H53C53 30.8 54.8 29 57 29H57.6667V21.3333Z" fill="url(#paint0_linear_64_140)"/>
<defs>
<linearGradient id="paint0_linear_64_140" x1="50" y1="0" x2="50" y2="50" gradientUnits="userSpaceOnUse">
<stop stop-color="#E4E5EA"/>
<stop offset="1" stop-color="#F0F1F6"/>
</linearGradient>
</defs>
</svg>
