<svg width="68" height="68" viewBox="0 0 68 68" fill="none" xmlns="http://www.w3.org/2000/svg">
<g id="ButtonMute_icon">
<g id="Ellipse 241" filter="url(#filter0_d_45_411)">
<circle cx="33" cy="31" r="30" fill="#1F1F1F" fill-opacity="0.5" shape-rendering="crispEdges"/>
</g>
<g id="muteIcon">
<path id="Vector" d="M45.3635 30.9965C45.3635 32.4067 45.1311 33.7645 44.7058 35.0297L42.693 32.9944C42.825 32.3368 42.8913 31.6675 42.8908 30.9965V28.4961C42.8908 28.1645 43.021 27.8465 43.2529 27.612C43.4848 27.3776 43.7992 27.2458 44.1271 27.2458C44.455 27.2458 44.7695 27.3776 45.0014 27.612C45.2332 27.8465 45.3635 28.1645 45.3635 28.4961V30.9965ZM32.9999 40.9983C35.0226 40.9983 36.9018 40.3856 38.4695 39.3305L40.245 41.1283C38.4783 42.4198 36.4053 43.216 34.2362 43.4362V48.4996H41.6544C41.9823 48.4996 42.2968 48.6313 42.5287 48.8657C42.7605 49.1002 42.8908 49.4182 42.8908 49.7498C42.8908 50.0814 42.7605 50.3994 42.5287 50.6338C42.2968 50.8683 41.9823 51 41.6544 51H24.3453C24.0174 51 23.7029 50.8683 23.4711 50.6338C23.2392 50.3994 23.109 50.0814 23.109 49.7498C23.109 49.4182 23.2392 49.1002 23.4711 48.8657C23.7029 48.6313 24.0174 48.4996 24.3453 48.4996H31.7635V43.4362C28.7139 43.1262 25.8868 41.6819 23.8307 39.3833C21.7746 37.0848 20.6362 34.0959 20.6362 30.9965V28.4961C20.6362 28.1645 20.7665 27.8465 20.9984 27.612C21.2302 27.3776 21.5447 27.2458 21.8726 27.2458C22.2005 27.2458 22.515 27.3776 22.7468 27.612C22.9787 27.8465 23.109 28.1645 23.109 28.4961V30.9965C23.109 33.6491 24.151 36.1931 26.0059 38.0688C27.8608 39.9445 30.3766 40.9983 32.9999 40.9983ZM40.418 18.4943V30.694L25.9724 16.0864C26.5385 14.4042 27.6766 12.9798 29.184 12.0666C30.6915 11.1535 32.4705 10.8109 34.2043 11.0999C35.9382 11.3889 37.5143 12.2908 38.6522 13.6448C39.7901 14.9989 40.4158 16.7174 40.418 18.4943Z" fill="#FFB662"/>
<path id="Vector_2" d="M36.7419 37.5374L25.4457 26.2387V30.9727C25.4453 32.2955 25.7923 33.5952 26.4519 34.7418C27.1115 35.8884 28.0606 36.8417 29.2043 37.5064C30.348 38.171 31.6462 38.5237 32.969 38.5292C34.2917 38.5346 35.5928 38.1926 36.7419 37.5374ZM17 14.2374L47.2172 44.4546L49 42.6718L18.7828 12.4546L17 14.2374Z" fill="#FFB662"/>
</g>
</g>
<defs>
<filter id="filter0_d_45_411" x="0" y="0" width="68" height="68" filterUnits="userSpaceOnUse" color-interpolation-filters="sRGB">
<feFlood flood-opacity="0" result="BackgroundImageFix"/>
<feColorMatrix in="SourceAlpha" type="matrix" values="0 0 0 0 0 0 0 0 0 0 0 0 0 0 0 0 0 0 127 0" result="hardAlpha"/>
<feOffset dx="1" dy="3"/>
<feGaussianBlur stdDeviation="2"/>
<feComposite in2="hardAlpha" operator="out"/>
<feColorMatrix type="matrix" values="0 0 0 0 0.797803 0 0 0 0 0.788155 0 0 0 0 0.788155 0 0 0 0.25 0"/>
<feBlend mode="normal" in2="BackgroundImageFix" result="effect1_dropShadow_45_411"/>
<feBlend mode="normal" in="SourceGraphic" in2="effect1_dropShadow_45_411" result="shape"/>
</filter>
</defs>
</svg>
