<svg width="50" height="50" viewBox="0 0 50 50" fill="none" xmlns="http://www.w3.org/2000/svg">
<path fill-rule="evenodd" clip-rule="evenodd" d="M25 50C38.8071 50 50 38.8071 50 25C50 11.1929 38.8071 0 25 0C11.1929 0 0 11.1929 0 25C0 38.8071 11.1929 50 25 50ZM37.2689 22.8027C37.2689 23.6612 36.9867 24.4864 36.4771 25.1598C36.5863 25.5239 36.6409 25.9031 36.647 26.2853C36.647 27.1438 36.3649 27.9689 35.8552 28.6424C35.9644 29.0064 36.019 29.3826 36.019 29.7648C36.019 30.6234 35.7369 31.4485 35.2272 32.122C35.3365 32.486 35.3911 32.8622 35.3911 33.2444C35.3911 34.8097 34.4597 36.2204 33.0157 36.8362C32.764 36.9454 32.4909 37 32.2118 37H17.8841V24.0162H17.8932L20.4991 14.5816C20.9177 13.0618 22.3132 12 23.8907 12C24.3329 11.9984 24.7708 12.0874 25.1773 12.2617C25.5837 12.436 25.9501 12.6918 26.2538 13.0132C26.8727 13.6655 27.1912 14.521 27.1488 15.4219L26.9667 19.1502H34.2413C34.6071 19.1499 34.9663 19.2473 35.2819 19.4324C36.5074 20.1513 37.2689 21.4406 37.2689 22.8027ZM13 36.0292V24.9869C13 24.45 13.4338 24.0162 13.9708 24.0162H15.9426V37H13.9708C13.4338 37 13 36.5662 13 36.0292Z" fill="#44FFA8"/>
</svg>
