<svg width="58" height="58" viewBox="0 0 58 58" fill="none" xmlns="http://www.w3.org/2000/svg">
<g id="ButtonVideo">
<g id="Ellipse 241" filter="url(#filter0_d_45_432)">
<circle cx="28" cy="26" r="25" fill="#1F1F1F" fill-opacity="0.5" shape-rendering="crispEdges"/>
</g>
<path id="videoIcon" d="M20 21.2222C20 19.9965 20.9965 19 22.2222 19H31.1111C32.3368 19 33.3333 19.9965 33.3333 21.2222V30.1111C33.3333 31.3368 32.3368 32.3333 31.1111 32.3333H22.2222C20.9965 32.3333 20 31.3368 20 30.1111V21.2222ZM39.4132 20.2431C39.7743 20.4375 40 20.8125 40 21.2222V30.1111C40 30.5208 39.7743 30.8958 39.4132 31.0903C39.0521 31.2847 38.6146 31.2639 38.2708 31.0347L34.9375 28.8125L34.4444 28.4826V27.8889V23.4444V22.8507L34.9375 22.5208L38.2708 20.2986C38.6111 20.0729 39.0486 20.0486 39.4132 20.2431Z" fill="url(#paint0_linear_45_432)"/>
</g>
<defs>
<filter id="filter0_d_45_432" x="0" y="0" width="58" height="58" filterUnits="userSpaceOnUse" color-interpolation-filters="sRGB">
<feFlood flood-opacity="0" result="BackgroundImageFix"/>
<feColorMatrix in="SourceAlpha" type="matrix" values="0 0 0 0 0 0 0 0 0 0 0 0 0 0 0 0 0 0 127 0" result="hardAlpha"/>
<feOffset dx="1" dy="3"/>
<feGaussianBlur stdDeviation="2"/>
<feComposite in2="hardAlpha" operator="out"/>
<feColorMatrix type="matrix" values="0 0 0 0 0.797803 0 0 0 0 0.788155 0 0 0 0 0.788155 0 0 0 0.25 0"/>
<feBlend mode="normal" in2="BackgroundImageFix" result="effect1_dropShadow_45_432"/>
<feBlend mode="normal" in="SourceGraphic" in2="effect1_dropShadow_45_432" result="shape"/>
</filter>
<linearGradient id="paint0_linear_45_432" x1="30" y1="19" x2="30" y2="32.3333" gradientUnits="userSpaceOnUse">
<stop stop-color="#E4E5EA"/>
<stop offset="1" stop-color="#F0F1F6"/>
</linearGradient>
</defs>
</svg>
