<svg width="58" height="58" viewBox="0 0 58 58" fill="none" xmlns="http://www.w3.org/2000/svg">
<g id="ButtonMicro">
<g id="Ellipse 239" filter="url(#filter0_d_45_431)">
<circle cx="28" cy="26" r="25" fill="#1F1F1F" fill-opacity="0.5" shape-rendering="crispEdges"/>
</g>
<g id="microIcon">
<path id="Vector" d="M24.5 19.75C24.5 18.7554 24.8951 17.8016 25.5983 17.0983C26.3016 16.3951 27.2554 16 28.25 16C29.2446 16 30.1984 16.3951 30.9017 17.0983C31.6049 17.8016 32 18.7554 32 19.75V26C32 26.9946 31.6049 27.9484 30.9017 28.6517C30.1984 29.3549 29.2446 29.75 28.25 29.75C27.2554 29.75 26.3016 29.3549 25.5983 28.6517C24.8951 27.9484 24.5 26.9946 24.5 26V19.75Z" fill="url(#paint0_linear_45_431)"/>
<path id="Vector_2" d="M22.625 24.125C22.7908 24.125 22.9497 24.1908 23.0669 24.3081C23.1842 24.4253 23.25 24.5842 23.25 24.75V26C23.25 27.3261 23.7768 28.5979 24.7145 29.5355C25.6521 30.4732 26.9239 31 28.25 31C29.5761 31 30.8479 30.4732 31.7855 29.5355C32.7232 28.5979 33.25 27.3261 33.25 26V24.75C33.25 24.5842 33.3158 24.4253 33.4331 24.3081C33.5503 24.1908 33.7092 24.125 33.875 24.125C34.0408 24.125 34.1997 24.1908 34.3169 24.3081C34.4342 24.4253 34.5 24.5842 34.5 24.75V26C34.5 27.5494 33.9245 29.0436 32.8852 30.1927C31.8458 31.3418 30.4166 32.0638 28.875 32.2188V34.75H32.625C32.7908 34.75 32.9497 34.8158 33.0669 34.9331C33.1842 35.0503 33.25 35.2092 33.25 35.375C33.25 35.5408 33.1842 35.6997 33.0669 35.8169C32.9497 35.9342 32.7908 36 32.625 36H23.875C23.7092 36 23.5503 35.9342 23.4331 35.8169C23.3158 35.6997 23.25 35.5408 23.25 35.375C23.25 35.2092 23.3158 35.0503 23.4331 34.9331C23.5503 34.8158 23.7092 34.75 23.875 34.75H27.625V32.2188C26.0834 32.0638 24.6542 31.3418 23.6148 30.1927C22.5755 29.0436 22 27.5494 22 26V24.75C22 24.5842 22.0658 24.4253 22.1831 24.3081C22.3003 24.1908 22.4592 24.125 22.625 24.125Z" fill="url(#paint1_linear_45_431)"/>
</g>
</g>
<defs>
<filter id="filter0_d_45_431" x="0" y="0" width="58" height="58" filterUnits="userSpaceOnUse" color-interpolation-filters="sRGB">
<feFlood flood-opacity="0" result="BackgroundImageFix"/>
<feColorMatrix in="SourceAlpha" type="matrix" values="0 0 0 0 0 0 0 0 0 0 0 0 0 0 0 0 0 0 127 0" result="hardAlpha"/>
<feOffset dx="1" dy="3"/>
<feGaussianBlur stdDeviation="2"/>
<feComposite in2="hardAlpha" operator="out"/>
<feColorMatrix type="matrix" values="0 0 0 0 0.797803 0 0 0 0 0.788155 0 0 0 0 0.788155 0 0 0 0.25 0"/>
<feBlend mode="normal" in2="BackgroundImageFix" result="effect1_dropShadow_45_431"/>
<feBlend mode="normal" in="SourceGraphic" in2="effect1_dropShadow_45_431" result="shape"/>
</filter>
<linearGradient id="paint0_linear_45_431" x1="28.25" y1="16" x2="28.25" y2="29.75" gradientUnits="userSpaceOnUse">
<stop stop-color="#E4E5EA"/>
<stop offset="1" stop-color="#F0F1F6"/>
</linearGradient>
<linearGradient id="paint1_linear_45_431" x1="28.25" y1="24.125" x2="28.25" y2="36" gradientUnits="userSpaceOnUse">
<stop stop-color="#E4E5EA"/>
<stop offset="1" stop-color="#F0F1F6"/>
</linearGradient>
</defs>
</svg>
