<svg width="50" height="24" viewBox="0 0 50 24" fill="none" xmlns="http://www.w3.org/2000/svg">
<g id="liveBox">
<path d="M1 5.00001C1 2.79087 2.79086 1 5 1H45C47.2091 1 49 2.79086 49 5V18.5172C49 20.7264 47.2091 22.5172 45 22.5172H5C2.79086 22.5172 1 20.7264 1 18.5172V5.00001Z" fill="url(#paint0_linear_80_122)"/>
<path d="M20.1103 14.5452V15.6552H15.8753V8.42517H17.2203V14.5452H20.1103Z" fill="#FFB662"/>
<path d="M22.0873 15.6552H20.7373V8.42517H22.0873V15.6552Z" fill="#FFB662"/>
<path d="M29.5677 8.42517L26.6477 15.6552H25.4327L22.5127 8.42517H23.5927C23.7094 8.42517 23.8044 8.45351 23.8777 8.51017C23.951 8.56684 24.006 8.64017 24.0427 8.73017L25.7477 13.1402C25.8044 13.2835 25.8577 13.4418 25.9077 13.6152C25.961 13.7852 26.011 13.9635 26.0577 14.1502C26.0977 13.9635 26.141 13.7852 26.1877 13.6152C26.2344 13.4418 26.286 13.2835 26.3427 13.1402L28.0377 8.73017C28.0644 8.65351 28.116 8.58351 28.1927 8.52017C28.2727 8.45684 28.3694 8.42517 28.4827 8.42517H29.5677Z" fill="#FFB662"/>
<path d="M31.3327 9.49517V11.5002H33.8627V12.5352H31.3327V14.5802H34.5427V15.6552H29.9827V8.42517H34.5427V9.49517H31.3327Z" fill="#FFB662"/>
<path d="M5 0.5C2.51472 0.5 0.5 2.51473 0.5 5.00001V18.5172C0.5 21.0025 2.51472 23.0172 5 23.0172H45C47.4853 23.0172 49.5 21.0025 49.5 18.5172V5C49.5 2.51472 47.4853 0.5 45 0.5H5Z" stroke="black"/>
</g>
<defs>
<linearGradient id="paint0_linear_80_122" x1="1" y1="5.48276" x2="14.4264" y2="33.5621" gradientUnits="userSpaceOnUse">
<stop stop-color="#514A5C"/>
<stop offset="0.5" stop-color="#352F41"/>
<stop offset="0.9999" stop-color="#1A1527"/>
</linearGradient>
</defs>
</svg>
