<svg width="21" height="22" viewBox="0 0 21 22" fill="none" xmlns="http://www.w3.org/2000/svg">
<path id="personIcon" d="M14.3687 1.5999C13.3864 0.568166 12.0144 0 10.5 0C8.97754 0 7.60097 0.564729 6.62318 1.59008C5.6348 2.62673 5.15322 4.0356 5.2663 5.55693C5.49043 8.55834 7.83822 10.9999 10.5 10.9999C13.1618 10.9999 15.5055 8.55883 15.7332 5.55791C15.8478 4.05033 15.3632 2.6444 14.3687 1.5999ZM19.3844 21.9999H1.61563C1.38305 22.0028 1.15273 21.9553 0.941408 21.8607C0.73009 21.7662 0.543095 21.627 0.394028 21.4533C0.0659119 21.0718 -0.0663441 20.5507 0.0315859 20.0238C0.457632 17.7246 1.78726 15.7933 3.87711 14.4374C5.73374 13.2338 8.08557 12.5714 10.5 12.5714C12.9144 12.5714 15.2663 13.2343 17.1229 14.4374C19.2127 15.7928 20.5424 17.7241 20.9684 20.0233C21.0663 20.5502 20.9341 21.0713 20.606 21.4528C20.457 21.6266 20.27 21.7659 20.0587 21.8605C19.8473 21.9551 19.617 22.0028 19.3844 21.9999Z" fill="#FFB662"/>
</svg>
